<svg xmlns="http://www.w3.org/2000/svg" width="1361" height="609"><style>.B{stroke:#cfdae6}.C{fill:#cfdae6}.D{opacity:.45}.E{stroke-width:1.167}.F{stroke:#bacad9}.G{fill:#bacad9}.H{stroke-width:.941}</style><g fill="none" fill-rule="evenodd"><g opacity=".8" transform="matrix(.9925 -.121869 .121869 .9925 -2 525.061708)"><g class="C"><ellipse opacity=".25" cx="63.575" cy="32.468" rx="21.783" ry="21.766"/><ellipse opacity=".6" cx="5.987" cy="13.867" rx="5.217" ry="5.213"/><path d="M38.135 88.352c5.763 0 10.435-4.668 10.435-10.427s-4.672-10.427-10.435-10.427-10.435 4.668-10.435 10.427 4.672 10.427 10.435 10.427z" class="D"/></g><g stroke-linecap="round" stroke-linejoin="round"><path d="M64.278 33.17l54.908-16.605" stroke-width="1.739" class="B"/><g stroke-width=".703" stroke-dasharray="1.405357899873153,2.108036953469981"><path d="M42.143 26.5L7.712 14.564" stroke="#e0b4b7" opacity=".7"/><path d="M63.926 33.522L43.672 69.325" class="F"/></g></g><g transform="matrix(.866025 .5 -.5 .866025 123.148084 .826724)" class="C"><ellipse cx="9.135" cy="9.128" rx="9.135" ry="9.128" class="D"/><path d="M0 9.128c0 5.041 4.09 9.128 9.135 9.128s9.135-4.087 9.135-9.128H0z"/></g></g><g transform="matrix(.9962 -.087156 .087156 .9962 97 36.149501)"><g class="C"><ellipse opacity=".25" cx="29.118" cy="29.14" rx="29.118" ry="29.14"/><ellipse opacity=".3" cx="29.118" cy="29.14" rx="21.569" ry="21.585"/></g><ellipse opacity=".4" cx="179.02" cy="138.146" rx="23.725" ry="23.744" class="B"/><g class="G"><ellipse opacity=".5" cx="29.118" cy="29.14" rx="10.784" ry="10.793"/><path d="M29.118 39.933V18.348a10.79 10.79 0 1 0 0 21.585z"/></g><g fill="#e6a1a6" class="D"><ellipse cx="179.02" cy="138.146" rx="6.471" ry="6.476"/><path d="M179.02 144.622c-3.574 0-6.471-2.899-6.471-6.476s2.897-6.476 6.471-6.476v12.951z"/></g><ellipse cx="218.382" cy="138.686" rx="1.618" ry="1.619" class="C"/><g fill="#e0b4b7"><ellipse opacity=".35" cx="179.559" cy="175.381" rx="1.618" ry="1.619"/><ellipse opacity=".35" cx="180.098" cy="102.53" rx="2.157" ry="2.159"/></g><path d="M28.999 29.967l142.152 102.909" opacity=".8" class="B"/></g><g opacity=".8" transform="matrix(.9816 -.190809 .190809 .9816 1019 1.494495)"><ellipse cx="43.814" cy="32" rx="11.186" ry="11.294" class="B H"/><g class="G"><ellipse cx="43.782" cy="32" rx="8.475" ry="8.556" class="D"/><path d="M43.782 40.556c4.68 0 8.475-3.831 8.475-8.556s-3.794-8.556-8.475-8.556v17.112z"/></g><g class="B H"><path d="M34.66 24.81L5.717 4.769"/><ellipse cx="3.263" cy="3.294" rx="3.263" ry="3.294"/></g><ellipse fill="#f7e1ad" cx="2.797" cy="61.176" rx="2.797" ry="2.824"/><path d="M34.631 39.292L5.064 59.785" class="B H"/></g><g opacity=".33" transform="matrix(.9848 -.173648 .173648 .9848 1122 344.621489)"><g transform="matrix(.087156 -.996195 .996195 .087156 128.333334 115.411209)" class="G"><circle cx="11.667" cy="11.667" r="11.667" class="D"/><path d="M0 11.667a11.67 11.67 0 0 0 11.667 11.667 11.67 11.67 0 0 0 11.667-11.667H0z"/></g><circle cx="201.833" cy="87.5" r="5.833" class="C"/><g class="E F"><path d="M143.5 88.813l11.571-71.209M17.5 37.333l109.966 60.312"/></g><path d="M143.903 120.302l31.033 111.269L38.5 147.511l87.867-36.678" class="B E"/><path d="M159.833 99.745l35.583-10.495" stroke="#e0b4b7" opacity=".6" class="E"/><path d="M205.333 82.137l33.386-45.971" class="E F"/><path d="M266.723 132.232l-59.64-41.815" class="B E"/><g fill="#c1d1e0"><circle cx="156.917" cy="8.75" r="8.75"/><circle cx="39.083" cy="148.75" r="5.25"/></g><g fill="#d1deed"><circle fill-opacity=".6" cx="8.75" cy="33.25" r="8.75"/><circle fill-opacity=".6" cx="243.833" cy="30.333" r="5.833"/></g><circle fill="#e0b4b7" cx="175.583" cy="232.75" r="5.25"/></g></g></svg>
