<svg width="105" height="20" viewBox="0 0 105 20" fill="none" xmlns="http://www.w3.org/2000/svg">
<path d="M29 16.44H36.096V14.6H31.096V10.744H35.904V8.904H31.096V5.08H36.096V3.24H29V16.44Z" fill="black"/>
<path d="M39.4062 16.44H41.5022V11.256H42.4382L46.3903 16.44H49.0463L44.7023 11.024C45.6889 10.8213 46.4623 10.376 47.0223 9.688C47.5876 9 47.8703 8.14933 47.8703 7.136C47.8703 5.90933 47.4782 4.95467 46.6943 4.272C45.9102 3.584 44.8516 3.24 43.5183 3.24H39.4062V16.44ZM41.5022 9.496V4.92H42.9023C43.7823 4.92 44.4649 5.12 44.9502 5.52C45.4409 5.92 45.6863 6.47733 45.6863 7.192C45.6863 7.912 45.4409 8.47733 44.9502 8.888C44.4596 9.29333 43.7769 9.496 42.9023 9.496H41.5022Z" fill="black"/>
<path d="M51.1562 16.44H53.2523V11.192H55.2682C56.1269 11.192 56.8816 11.0293 57.5323 10.704C58.1883 10.3733 58.7003 9.90667 59.0683 9.304C59.4363 8.696 59.6203 7.97333 59.6203 7.136C59.6203 6.29333 59.4363 5.584 59.0683 5.008C58.7003 4.42667 58.1883 3.98667 57.5323 3.688C56.8816 3.38933 56.1269 3.24 55.2682 3.24H51.1562V16.44ZM53.2523 9.496V4.92H54.6523C55.4416 4.92 56.1029 5.104 56.6362 5.472C57.1696 5.84 57.4363 6.41333 57.4363 7.192C57.4363 7.96533 57.1696 8.544 56.6362 8.928C56.1029 9.30667 55.4416 9.496 54.6523 9.496H53.2523Z" fill="black"/>
<path d="M66.5781 16.44H68.6741V3.24H66.5781V16.44Z" fill="black"/>
<path d="M84.4113 16.872L85.3393 15C85.0033 14.8933 84.6593 14.7653 84.3073 14.616C83.9553 14.4667 83.5979 14.2987 83.2353 14.112C83.7313 13.5413 84.1126 12.8907 84.3792 12.16C84.6512 11.424 84.7873 10.656 84.7873 9.856C84.7873 8.90133 84.6139 8.01067 84.2673 7.184C83.9259 6.352 83.4513 5.624 82.8433 5C82.2352 4.37067 81.5286 3.88 80.7233 3.528C79.9179 3.176 79.0539 3 78.1312 3C77.2032 3 76.3366 3.17867 75.5312 3.536C74.7259 3.888 74.0193 4.37867 73.4113 5.008C72.8033 5.632 72.3286 6.36 71.9873 7.192C71.6459 8.024 71.4753 8.91733 71.4753 9.872C71.4753 10.832 71.6432 11.7253 71.9792 12.552C72.3206 13.3787 72.7926 14.104 73.3952 14.728C73.9979 15.3467 74.7019 15.8293 75.5073 16.176C76.3126 16.5227 77.1819 16.696 78.1152 16.696C79.5072 16.696 80.7499 16.3147 81.8433 15.552C82.2753 15.824 82.7046 16.072 83.1313 16.296C83.5633 16.5147 83.9899 16.7067 84.4113 16.872ZM78.1073 14.68C77.2593 14.68 76.5046 14.4747 75.8433 14.064C75.1873 13.648 74.6699 13.08 74.2912 12.36C73.9126 11.6347 73.7233 10.8053 73.7233 9.872C73.7233 8.93867 73.9126 8.10667 74.2912 7.376C74.6752 6.64533 75.2006 6.06933 75.8672 5.648C76.5339 5.22667 77.2886 5.016 78.1312 5.016C78.9739 5.016 79.7259 5.22667 80.3872 5.648C81.0486 6.064 81.5686 6.63733 81.9473 7.368C82.3313 8.09333 82.5233 8.92267 82.5233 9.856C82.5233 11.1307 82.1206 12.2 81.3153 13.064C80.8832 12.7707 80.4646 12.456 80.0592 12.12C79.6539 11.7787 79.2673 11.416 78.8993 11.032L77.9953 12.136C78.2939 12.4933 78.6139 12.84 78.9552 13.176C79.2966 13.512 79.6539 13.832 80.0273 14.136C79.4566 14.4987 78.8166 14.68 78.1073 14.68Z" fill="black"/>
<path d="M88.0469 16.44H90.1429V3.24H88.0469V16.44Z" fill="black"/>
<path d="M94 16.44H97.392C98.3307 16.44 99.2027 16.2747 100.008 15.944C100.819 15.608 101.525 15.1413 102.128 14.544C102.736 13.9413 103.208 13.24 103.544 12.44C103.88 11.64 104.048 10.776 104.048 9.848C104.048 8.92 103.877 8.056 103.536 7.256C103.2 6.45067 102.728 5.74933 102.12 5.152C101.517 4.54933 100.813 4.08 100.008 3.744C99.2027 3.408 98.3307 3.24 97.392 3.24H94V16.44ZM96.096 14.56V5.12H97.168C98.048 5.12 98.8373 5.328 99.536 5.744C100.235 6.15467 100.787 6.71733 101.192 7.432C101.597 8.14133 101.8 8.944 101.8 9.84C101.8 10.736 101.597 11.5413 101.192 12.256C100.787 12.9653 100.235 13.528 99.536 13.944C98.8373 14.3547 98.048 14.56 97.168 14.56H96.096Z" fill="black"/>
<g clip-path="url(#clip0_1003_271803)">
<path d="M1.0583 0H0V1.0583H1.0583V0Z" fill="black"/>
<path d="M3.175 0H2.1167V1.0583H3.175V0Z" fill="black"/>
<path d="M5.29161 0H4.23331V1.0583H5.29161V0Z" fill="black"/>
<path d="M7.40831 0H6.35001V1.0583H7.40831V0Z" fill="black"/>
<path d="M9.52501 0H8.46671V1.0583H9.52501V0Z" fill="black"/>
<path d="M11.6416 0H10.5833V1.0583H11.6416V0Z" fill="black"/>
<path d="M13.7583 0H12.7V1.0583H13.7583V0Z" fill="black"/>
<path d="M15.875 0H14.8167V1.0583H15.875V0Z" fill="black"/>
<path d="M17.9916 0H16.9333V1.0583H17.9916V0Z" fill="black"/>
<path d="M1.0583 1.0583H0V2.1166H1.0583V1.0583Z" fill="black"/>
<path d="M5.29161 1.0583H4.23331V2.1166H5.29161V1.0583Z" fill="black"/>
<path d="M6.35 1.0583H5.2917V2.1166H6.35V1.0583Z" fill="black"/>
<path d="M7.40831 1.0583H6.35001V2.1166H7.40831V1.0583Z" fill="black"/>
<path d="M8.4666 1.0583H7.40829V2.1166H8.4666V1.0583Z" fill="black"/>
<path d="M12.7 1.0583H11.6417V2.1166H12.7V1.0583Z" fill="black"/>
<path d="M15.875 1.0583H14.8167V2.1166H15.875V1.0583Z" fill="black"/>
<path d="M19.05 1.0583H17.9917V2.1166H19.05V1.0583Z" fill="black"/>
<path d="M1.0583 2.1167H0V3.175H1.0583V2.1167Z" fill="black"/>
<path d="M4.2333 2.1167H3.175V3.175H4.2333V2.1167Z" fill="black"/>
<path d="M5.29161 2.1167H4.23331V3.175H5.29161V2.1167Z" fill="black"/>
<path d="M6.35 2.1167H5.2917V3.175H6.35V2.1167Z" fill="black"/>
<path d="M11.6416 2.1167H10.5833V3.175H11.6416V2.1167Z" fill="black"/>
<path d="M12.7 2.1167H11.6417V3.175H12.7V2.1167Z" fill="black"/>
<path d="M13.7583 2.1167H12.7V3.175H13.7583V2.1167Z" fill="black"/>
<path d="M14.8166 2.1167H13.7583V3.175H14.8166V2.1167Z" fill="black"/>
<path d="M15.875 2.1167H14.8167V3.175H15.875V2.1167Z" fill="black"/>
<path d="M16.9333 2.1167H15.875V3.175H16.9333V2.1167Z" fill="black"/>
<path d="M17.9916 2.1167H16.9333V3.175H17.9916V2.1167Z" fill="black"/>
<path d="M1.0583 3.175H0V4.2333H1.0583V3.175Z" fill="black"/>
<path d="M2.1166 3.175H1.0583V4.2333H2.1166V3.175Z" fill="black"/>
<path d="M4.2333 3.175H3.175V4.2333H4.2333V3.175Z" fill="black"/>
<path d="M5.29161 3.175H4.23331V4.2333H5.29161V3.175Z" fill="black"/>
<path d="M10.5833 3.175H9.52499V4.2333H10.5833V3.175Z" fill="black"/>
<path d="M11.6416 3.175H10.5833V4.2333H11.6416V3.175Z" fill="black"/>
<path d="M13.7583 3.175H12.7V4.2333H13.7583V3.175Z" fill="black"/>
<path d="M14.8166 3.175H13.7583V4.2333H14.8166V3.175Z" fill="black"/>
<path d="M15.875 3.175H14.8167V4.2333H15.875V3.175Z" fill="black"/>
<path d="M16.9333 3.175H15.875V4.2333H16.9333V3.175Z" fill="black"/>
<path d="M17.9916 3.175H16.9333V4.2333H17.9916V3.175Z" fill="black"/>
<path d="M19.05 3.175H17.9917V4.2333H19.05V3.175Z" fill="black"/>
<path d="M1.0583 4.23331H0V5.29161H1.0583V4.23331Z" fill="black"/>
<path d="M2.1166 4.23331H1.0583V5.29161H2.1166V4.23331Z" fill="black"/>
<path d="M7.40831 4.23331H6.35001V5.29161H7.40831V4.23331Z" fill="black"/>
<path d="M10.5833 4.23331H9.52499V5.29161H10.5833V4.23331Z" fill="black"/>
<path d="M12.7 4.23331H11.6417V5.29161H12.7V4.23331Z" fill="black"/>
<path d="M13.7583 4.23331H12.7V5.29161H13.7583V4.23331Z" fill="black"/>
<path d="M14.8166 4.23331H13.7583V5.29161H14.8166V4.23331Z" fill="black"/>
<path d="M16.9333 4.23331H15.875V5.29161H16.9333V4.23331Z" fill="black"/>
<path d="M1.0583 5.2917H0V6.35H1.0583V5.2917Z" fill="black"/>
<path d="M2.1166 5.2917H1.0583V6.35H2.1166V5.2917Z" fill="black"/>
<path d="M4.2333 5.2917H3.175V6.35H4.2333V5.2917Z" fill="black"/>
<path d="M9.52501 5.2917H8.46671V6.35H9.52501V5.2917Z" fill="black"/>
<path d="M11.6416 5.2917H10.5833V6.35H11.6416V5.2917Z" fill="black"/>
<path d="M12.7 5.2917H11.6417V6.35H12.7V5.2917Z" fill="black"/>
<path d="M15.875 5.2917H14.8167V6.35H15.875V5.2917Z" fill="black"/>
<path d="M16.9333 5.2917H15.875V6.35H16.9333V5.2917Z" fill="black"/>
<path d="M17.9916 5.2917H16.9333V6.35H17.9916V5.2917Z" fill="black"/>
<path d="M19.05 5.2917H17.9917V6.35H19.05V5.2917Z" fill="black"/>
<path d="M1.0583 6.35001H0V7.40831H1.0583V6.35001Z" fill="black"/>
<path d="M4.2333 6.35001H3.175V7.40831H4.2333V6.35001Z" fill="black"/>
<path d="M5.29161 6.35001H4.23331V7.40831H5.29161V6.35001Z" fill="black"/>
<path d="M6.35 6.35001H5.2917V7.40831H6.35V6.35001Z" fill="black"/>
<path d="M7.40831 6.35001H6.35001V7.40831H7.40831V6.35001Z" fill="black"/>
<path d="M8.4666 6.35001H7.40829V7.40831H8.4666V6.35001Z" fill="black"/>
<path d="M9.52501 6.35001H8.46671V7.40831H9.52501V6.35001Z" fill="black"/>
<path d="M11.6416 6.35001H10.5833V7.40831H11.6416V6.35001Z" fill="black"/>
<path d="M13.7583 6.35001H12.7V7.40831H13.7583V6.35001Z" fill="black"/>
<path d="M16.9333 6.35001H15.875V7.40831H16.9333V6.35001Z" fill="black"/>
<path d="M1.0583 7.40829H0V8.4666H1.0583V7.40829Z" fill="black"/>
<path d="M2.1166 7.40829H1.0583V8.4666H2.1166V7.40829Z" fill="black"/>
<path d="M3.175 7.40829H2.1167V8.4666H3.175V7.40829Z" fill="black"/>
<path d="M4.2333 7.40829H3.175V8.4666H4.2333V7.40829Z" fill="black"/>
<path d="M5.29161 7.40829H4.23331V8.4666H5.29161V7.40829Z" fill="black"/>
<path d="M7.40831 7.40829H6.35001V8.4666H7.40831V7.40829Z" fill="black"/>
<path d="M8.4666 7.40829H7.40829V8.4666H8.4666V7.40829Z" fill="black"/>
<path d="M13.7583 7.40829H12.7V8.4666H13.7583V7.40829Z" fill="black"/>
<path d="M19.05 7.40829H17.9917V8.4666H19.05V7.40829Z" fill="black"/>
<path d="M1.0583 8.46671H0V9.52501H1.0583V8.46671Z" fill="black"/>
<path d="M2.1166 8.46671H1.0583V9.52501H2.1166V8.46671Z" fill="black"/>
<path d="M7.40831 8.46671H6.35001V9.52501H7.40831V8.46671Z" fill="black"/>
<path d="M8.4666 8.46671H7.40829V9.52501H8.4666V8.46671Z" fill="black"/>
<path d="M11.6416 8.46671H10.5833V9.52501H11.6416V8.46671Z" fill="black"/>
<path d="M14.8166 8.46671H13.7583V9.52501H14.8166V8.46671Z" fill="black"/>
<path d="M1.0583 9.52499H0V10.5833H1.0583V9.52499Z" fill="black"/>
<path d="M2.1166 9.52499H1.0583V10.5833H2.1166V9.52499Z" fill="black"/>
<path d="M3.175 9.52499H2.1167V10.5833H3.175V9.52499Z" fill="black"/>
<path d="M5.29161 9.52499H4.23331V10.5833H5.29161V9.52499Z" fill="black"/>
<path d="M9.52501 9.52499H8.46671V10.5833H9.52501V9.52499Z" fill="black"/>
<path d="M10.5833 9.52499H9.52499V10.5833H10.5833V9.52499Z" fill="black"/>
<path d="M11.6416 9.52499H10.5833V10.5833H11.6416V9.52499Z" fill="black"/>
<path d="M17.9916 9.52499H16.9333V10.5833H17.9916V9.52499Z" fill="black"/>
<path d="M19.05 9.52499H17.9917V10.5833H19.05V9.52499Z" fill="black"/>
<path d="M1.0583 10.5833H0V11.6416H1.0583V10.5833Z" fill="black"/>
<path d="M3.175 10.5833H2.1167V11.6416H3.175V10.5833Z" fill="black"/>
<path d="M11.6416 10.5833H10.5833V11.6416H11.6416V10.5833Z" fill="black"/>
<path d="M16.9333 10.5833H15.875V11.6416H16.9333V10.5833Z" fill="black"/>
<path d="M17.9916 10.5833H16.9333V11.6416H17.9916V10.5833Z" fill="black"/>
<path d="M1.0583 11.6417H0V12.7H1.0583V11.6417Z" fill="black"/>
<path d="M3.175 11.6417H2.1167V12.7H3.175V11.6417Z" fill="black"/>
<path d="M4.2333 11.6417H3.175V12.7H4.2333V11.6417Z" fill="black"/>
<path d="M5.29161 11.6417H4.23331V12.7H5.29161V11.6417Z" fill="black"/>
<path d="M6.35 11.6417H5.2917V12.7H6.35V11.6417Z" fill="black"/>
<path d="M8.4666 11.6417H7.40829V12.7H8.4666V11.6417Z" fill="black"/>
<path d="M10.5833 11.6417H9.52499V12.7H10.5833V11.6417Z" fill="black"/>
<path d="M13.7583 11.6417H12.7V12.7H13.7583V11.6417Z" fill="black"/>
<path d="M14.8166 11.6417H13.7583V12.7H14.8166V11.6417Z" fill="black"/>
<path d="M15.875 11.6417H14.8167V12.7H15.875V11.6417Z" fill="black"/>
<path d="M16.9333 11.6417H15.875V12.7H16.9333V11.6417Z" fill="black"/>
<path d="M17.9916 11.6417H16.9333V12.7H17.9916V11.6417Z" fill="black"/>
<path d="M19.05 11.6417H17.9917V12.7H19.05V11.6417Z" fill="black"/>
<path d="M1.0583 12.7H0V13.7583H1.0583V12.7Z" fill="black"/>
<path d="M2.1166 12.7H1.0583V13.7583H2.1166V12.7Z" fill="black"/>
<path d="M4.2333 12.7H3.175V13.7583H4.2333V12.7Z" fill="black"/>
<path d="M5.29161 12.7H4.23331V13.7583H5.29161V12.7Z" fill="black"/>
<path d="M9.52501 12.7H8.46671V13.7583H9.52501V12.7Z" fill="black"/>
<path d="M10.5833 12.7H9.52499V13.7583H10.5833V12.7Z" fill="black"/>
<path d="M11.6416 12.7H10.5833V13.7583H11.6416V12.7Z" fill="black"/>
<path d="M13.7583 12.7H12.7V13.7583H13.7583V12.7Z" fill="black"/>
<path d="M14.8166 12.7H13.7583V13.7583H14.8166V12.7Z" fill="black"/>
<path d="M15.875 12.7H14.8167V13.7583H15.875V12.7Z" fill="black"/>
<path d="M1.0583 13.7583H0V14.8166H1.0583V13.7583Z" fill="black"/>
<path d="M2.1166 13.7583H1.0583V14.8166H2.1166V13.7583Z" fill="black"/>
<path d="M4.2333 13.7583H3.175V14.8166H4.2333V13.7583Z" fill="black"/>
<path d="M5.29161 13.7583H4.23331V14.8166H5.29161V13.7583Z" fill="black"/>
<path d="M6.35 13.7583H5.2917V14.8166H6.35V13.7583Z" fill="black"/>
<path d="M8.4666 13.7583H7.40829V14.8166H8.4666V13.7583Z" fill="black"/>
<path d="M9.52501 13.7583H8.46671V14.8166H9.52501V13.7583Z" fill="black"/>
<path d="M11.6416 13.7583H10.5833V14.8166H11.6416V13.7583Z" fill="black"/>
<path d="M14.8166 13.7583H13.7583V14.8166H14.8166V13.7583Z" fill="black"/>
<path d="M15.875 13.7583H14.8167V14.8166H15.875V13.7583Z" fill="black"/>
<path d="M17.9916 13.7583H16.9333V14.8166H17.9916V13.7583Z" fill="black"/>
<path d="M19.05 13.7583H17.9917V14.8166H19.05V13.7583Z" fill="black"/>
<path d="M1.0583 14.8167H0V15.875H1.0583V14.8167Z" fill="black"/>
<path d="M3.175 14.8167H2.1167V15.875H3.175V14.8167Z" fill="black"/>
<path d="M4.2333 14.8167H3.175V15.875H4.2333V14.8167Z" fill="black"/>
<path d="M7.40831 14.8167H6.35001V15.875H7.40831V14.8167Z" fill="black"/>
<path d="M8.4666 14.8167H7.40829V15.875H8.4666V14.8167Z" fill="black"/>
<path d="M9.52501 14.8167H8.46671V15.875H9.52501V14.8167Z" fill="black"/>
<path d="M10.5833 14.8167H9.52499V15.875H10.5833V14.8167Z" fill="black"/>
<path d="M16.9333 14.8167H15.875V15.875H16.9333V14.8167Z" fill="black"/>
<path d="M1.0583 15.875H0V16.9333H1.0583V15.875Z" fill="black"/>
<path d="M2.1166 15.875H1.0583V16.9333H2.1166V15.875Z" fill="black"/>
<path d="M3.175 15.875H2.1167V16.9333H3.175V15.875Z" fill="black"/>
<path d="M5.29161 15.875H4.23331V16.9333H5.29161V15.875Z" fill="black"/>
<path d="M6.35 15.875H5.2917V16.9333H6.35V15.875Z" fill="black"/>
<path d="M7.40831 15.875H6.35001V16.9333H7.40831V15.875Z" fill="black"/>
<path d="M11.6416 15.875H10.5833V16.9333H11.6416V15.875Z" fill="black"/>
<path d="M13.7583 15.875H12.7V16.9333H13.7583V15.875Z" fill="black"/>
<path d="M16.9333 15.875H15.875V16.9333H16.9333V15.875Z" fill="black"/>
<path d="M19.05 15.875H17.9917V16.9333H19.05V15.875Z" fill="black"/>
<path d="M1.0583 16.9333H0V17.9916H1.0583V16.9333Z" fill="black"/>
<path d="M2.1166 16.9333H1.0583V17.9916H2.1166V16.9333Z" fill="black"/>
<path d="M3.175 16.9333H2.1167V17.9916H3.175V16.9333Z" fill="black"/>
<path d="M6.35 16.9333H5.2917V17.9916H6.35V16.9333Z" fill="black"/>
<path d="M8.4666 16.9333H7.40829V17.9916H8.4666V16.9333Z" fill="black"/>
<path d="M9.52501 16.9333H8.46671V17.9916H9.52501V16.9333Z" fill="black"/>
<path d="M13.7583 16.9333H12.7V17.9916H13.7583V16.9333Z" fill="black"/>
<path d="M14.8166 16.9333H13.7583V17.9916H14.8166V16.9333Z" fill="black"/>
<path d="M16.9333 16.9333H15.875V17.9916H16.9333V16.9333Z" fill="black"/>
<path d="M17.9916 16.9333H16.9333V17.9916H17.9916V16.9333Z" fill="black"/>
<path d="M1.0583 17.9917H0V19.05H1.0583V17.9917Z" fill="black"/>
<path d="M2.1166 17.9917H1.0583V19.05H2.1166V17.9917Z" fill="black"/>
<path d="M3.175 17.9917H2.1167V19.05H3.175V17.9917Z" fill="black"/>
<path d="M4.2333 17.9917H3.175V19.05H4.2333V17.9917Z" fill="black"/>
<path d="M5.29161 17.9917H4.23331V19.05H5.29161V17.9917Z" fill="black"/>
<path d="M6.35 17.9917H5.2917V19.05H6.35V17.9917Z" fill="black"/>
<path d="M7.40831 17.9917H6.35001V19.05H7.40831V17.9917Z" fill="black"/>
<path d="M8.4666 17.9917H7.40829V19.05H8.4666V17.9917Z" fill="black"/>
<path d="M9.52501 17.9917H8.46671V19.05H9.52501V17.9917Z" fill="black"/>
<path d="M10.5833 17.9917H9.52499V19.05H10.5833V17.9917Z" fill="black"/>
<path d="M11.6416 17.9917H10.5833V19.05H11.6416V17.9917Z" fill="black"/>
<path d="M12.7 17.9917H11.6417V19.05H12.7V17.9917Z" fill="black"/>
<path d="M13.7583 17.9917H12.7V19.05H13.7583V17.9917Z" fill="black"/>
<path d="M14.8166 17.9917H13.7583V19.05H14.8166V17.9917Z" fill="black"/>
<path d="M15.875 17.9917H14.8167V19.05H15.875V17.9917Z" fill="black"/>
<path d="M16.9333 17.9917H15.875V19.05H16.9333V17.9917Z" fill="black"/>
<path d="M17.9916 17.9917H16.9333V19.05H17.9916V17.9917Z" fill="black"/>
<path d="M19.05 17.9917H17.9917V19.05H19.05V17.9917Z" fill="black"/>
</g>
<defs>
<clipPath id="clip0_1003_271803">
<rect width="19.05" height="19.05" fill="white"/>
</clipPath>
</defs>
</svg>
